<svg width="63" height="64" viewBox="0 0 63 64" fill="none" xmlns="http://www.w3.org/2000/svg">
    <path d="M40.1667 10.0098C42.2062 9.25237 44.4847 10.1954 45.3925 12.1725L48.7448 19.4738C49.3444 20.7798 48.7077 22.3201 47.3609 22.8215V22.8215C46.1481 23.2731 44.7923 22.7126 44.2523 21.5365L41.9097 16.4343C41.512 15.5682 40.5131 15.1561 39.6204 15.4899V15.4899C38.7282 15.8235 37.7298 15.412 37.3317 14.5466L37.0775 13.9939C36.4761 12.6864 37.114 11.1434 38.4633 10.6423L40.1667 10.0098ZM34.5266 12.1079L36.5895 16.6188L37.4194 18.4186C38.0226 19.7269 37.3833 21.2718 36.032 21.7713V21.7713C34.8204 22.2192 33.4683 21.6584 32.9294 20.4845L31.8864 18.213C30.7577 15.7547 27.9247 14.5822 25.3889 15.5239L22.7214 16.5146V16.5146C21.6869 16.8946 20.5342 16.4152 20.0744 15.4137L19.9347 15.1093C19.3342 13.8015 19.9725 12.2592 21.3215 11.7582L27.8354 9.33922C30.4467 8.36949 33.364 9.57662 34.5266 12.1079V12.1079Z" fill="url(#paint0_linear_335_2810)" />
    <path d="M7.5647 38.1637C7.5647 36.1181 7.98759 34.2987 8.83337 32.7055C9.69881 31.0926 10.9183 29.8436 12.4918 28.9585C14.0654 28.0537 15.875 27.6013 17.9206 27.6013C20.5169 27.6013 22.7002 28.2996 24.4704 29.6961C25.1725 30.2422 25.7756 30.8671 26.2797 31.571C27.5143 33.2949 25.8925 35.3313 23.772 35.3313V35.3313C22.4867 35.3313 21.3992 34.4687 20.3638 33.707C20.2798 33.6452 20.1931 33.5867 20.1039 33.5316C19.4548 33.1185 18.6975 32.912 17.8321 32.912C16.4945 32.912 15.4226 33.3939 14.6161 34.3577C13.8294 35.3018 13.436 36.5705 13.436 38.1637C13.436 39.7766 13.8294 41.0649 14.6161 42.0287C15.4226 42.9728 16.4945 43.4449 17.8321 43.4449C18.6975 43.4449 19.4548 43.2384 20.1039 42.8253C20.1931 42.7702 20.2798 42.7117 20.3638 42.6499C21.3992 41.8883 22.4867 41.0256 23.772 41.0256V41.0256C25.8925 41.0256 27.5125 43.0598 26.2852 44.789C25.78 45.5007 25.1751 46.1345 24.4704 46.6903C22.7002 48.0672 20.5169 48.7556 17.9206 48.7556C15.875 48.7556 14.0654 48.3131 12.4918 47.4279C10.9183 46.5231 9.69881 45.2742 8.83337 43.6809C7.98759 42.0681 7.5647 40.229 7.5647 38.1637Z" fill="url(#paint1_linear_335_2810)" />
    <path d="M49.8973 44.383C49.8973 46.4618 48.212 48.1471 46.1331 48.1471V48.1471C44.8723 48.1471 43.6952 47.5158 42.9976 46.4656L38.549 39.7679C38.2112 39.2593 37.5996 39.0053 37.0009 39.125V39.125C36.2514 39.275 35.7334 39.9631 35.7968 40.7248L36.1644 45.146C36.2988 46.7616 35.0238 48.1471 33.4026 48.1471V48.1471C31.872 48.1471 30.6312 46.9063 30.6312 45.3757V30.9858C30.6312 28.976 32.2604 27.3468 34.2702 27.3468V27.3468C35.5931 27.3468 36.8118 28.0648 37.4531 29.222L42.2911 37.9527C42.5987 38.5078 43.274 38.7438 43.8604 38.501V38.501C44.3487 38.2988 44.6568 37.811 44.6294 37.2831L44.268 30.3091C44.1845 28.6985 45.468 27.3468 47.0808 27.3468V27.3468C48.6363 27.3468 49.8973 28.6078 49.8973 30.1633V44.383Z" fill="url(#paint2_linear_335_2810)" />
    <defs>
        <linearGradient id="paint0_linear_335_2810" x1="24.3884" y1="2.27872" x2="53.8708" y2="17.7503" gradientUnits="userSpaceOnUse">
            <stop stop-color="#79F3D6" />
            <stop offset="1" stop-color="#E1F885" />
        </linearGradient>
        <linearGradient id="paint1_linear_335_2810" x1="7.5647" y1="27.3468" x2="54.593" y2="31.4177" gradientUnits="userSpaceOnUse">
            <stop stop-color="#79F3D6" />
            <stop offset="1" stop-color="#E1F885" />
        </linearGradient>
        <linearGradient id="paint2_linear_335_2810" x1="7.5647" y1="27.3468" x2="54.593" y2="31.4177" gradientUnits="userSpaceOnUse">
            <stop stop-color="#79F3D6" />
            <stop offset="1" stop-color="#E1F885" />
        </linearGradient>
    </defs>
</svg>