<svg width="182" height="26" viewBox="0 0 182 26" fill="none" xmlns="http://www.w3.org/2000/svg">
<path d="M19.7687 17.1701C21.3446 17.5944 22.3548 19.2478 21.5304 20.6563C21.2287 21.1716 20.8822 21.6386 20.491 22.0571C19.5207 23.1198 18.331 23.8936 16.9219 24.3788C15.5358 24.8408 13.9996 25.0718 12.3133 25.0718C9.95701 25.0718 7.91259 24.6098 6.18003 23.6857C4.47057 22.7386 3.15383 21.3872 2.2298 19.6315C1.30577 17.8759 0.84375 15.7622 0.84375 13.2904C0.84375 10.8186 1.30577 8.70488 2.2298 6.94923C3.15383 5.19357 4.47057 3.85372 6.18003 2.92969C7.91259 1.98256 9.94546 1.50899 12.2786 1.50899C13.9419 1.50899 15.4665 1.74 16.8526 2.20202C18.2617 2.66403 19.4514 3.38016 20.4217 4.35039C20.836 4.76472 21.1934 5.23171 21.494 5.75136C22.2306 7.02465 21.3939 8.52964 20.0287 9.07727L19.338 9.35433C17.7558 9.98902 16.276 8.66513 14.9121 7.64225V7.64225C14.2884 7.15713 13.4799 6.91458 12.4865 6.91458C11.5625 6.91458 10.7655 7.15713 10.0956 7.64225C9.44879 8.10426 8.95212 8.80884 8.60561 9.75597C8.2822 10.68 8.12049 11.8581 8.12049 13.2904C8.12049 14.6995 8.27065 15.8777 8.57096 16.8248C8.89437 17.7719 9.37949 18.4881 10.0263 18.9732C10.6962 19.4352 11.5625 19.6662 12.6251 19.6662C13.5723 19.6662 14.3693 19.389 15.0161 18.8346V18.8346C16.2222 17.8008 17.6186 16.5912 19.1525 17.0042L19.7687 17.1701Z" fill="url(#paint0_linear_181_5346)"/>
<path d="M33.4751 7.05318C35.3694 7.05318 37.0211 7.41124 38.4302 8.12736C39.8394 8.82039 40.9367 9.83682 41.7221 11.1767C42.5075 12.5165 42.9002 14.1451 42.9002 16.0625C42.9002 17.9567 42.5075 19.5853 41.7221 20.9483C40.9367 22.2881 39.8394 23.3161 38.4302 24.0322C37.0211 24.7253 35.3694 25.0718 33.4751 25.0718C31.6271 25.0718 29.9869 24.7253 28.5547 24.0322C27.1455 23.3161 26.0367 22.2881 25.2282 20.9483C24.4427 19.5853 24.05 17.9567 24.05 16.0625C24.05 14.1451 24.4427 12.5165 25.2282 11.1767C26.0367 9.83682 27.1455 8.82039 28.5547 8.12736C29.9869 7.41124 31.6271 7.05318 33.4751 7.05318ZM33.4751 11.8697C32.9669 11.8697 32.528 11.9967 32.1584 12.2509C31.8119 12.505 31.5462 12.9439 31.3614 13.5676C31.1766 14.1913 31.0842 15.0229 31.0842 16.0625C31.0842 17.102 31.1766 17.9336 31.3614 18.5574C31.5462 19.158 31.8119 19.5969 32.1584 19.8741C32.528 20.1282 32.9669 20.2553 33.4751 20.2553C34.0064 20.2553 34.4454 20.1282 34.7919 19.8741C35.1384 19.5969 35.404 19.158 35.5888 18.5574C35.7737 17.9336 35.8661 17.102 35.8661 16.0625C35.8661 15.0229 35.7737 14.1913 35.5888 13.5676C35.404 12.9439 35.1384 12.505 34.7919 12.2509C34.4454 11.9967 34.0064 11.8697 33.4751 11.8697Z" fill="url(#paint1_linear_181_5346)"/>
<path d="M51.759 25.0718C50.3499 25.0718 49.1255 24.7253 48.086 24.0322C47.0696 23.3161 46.2841 22.2881 45.7297 20.9483C45.1984 19.6084 44.9328 18.0029 44.9328 16.1318C44.9328 14.2144 45.21 12.5858 45.7644 11.246C46.3188 9.88302 47.1158 8.84349 48.1553 8.12736C49.2179 7.41124 50.4538 7.05318 51.863 7.05318C53.5031 7.05318 54.7852 7.57294 55.7093 8.61248C56.6093 9.6025 57.1915 10.8665 57.456 12.4044C57.4696 12.4835 57.4502 12.5646 57.4033 12.6297V12.6297C57.2309 12.8692 56.8527 12.7472 56.8527 12.4522V3.26155C56.8527 1.6047 58.1959 0.261551 59.8527 0.261551H60.8523C62.5091 0.261551 63.8523 1.6047 63.8523 3.26155V21.7253C63.8523 23.3821 62.5091 24.7253 60.8523 24.7253H59.2424C58.2883 24.7253 57.4982 23.9843 57.4371 23.0321L57.191 19.1965C57.1698 18.8657 57.5694 18.685 57.8038 18.9193V18.9193C57.8816 18.9971 57.9199 19.1063 57.905 19.2153C57.7538 20.3237 57.4146 21.3171 56.8874 22.1957C56.3561 23.0967 55.6515 23.8012 54.7737 24.3095C53.919 24.8177 52.9141 25.0718 51.759 25.0718ZM54.4618 20.082C54.97 20.082 55.3974 19.9319 55.7439 19.6315C56.0904 19.3312 56.3561 18.8808 56.5409 18.2802C56.7488 17.6795 56.8527 16.9288 56.8527 16.0278C56.8527 15.1731 56.7603 14.457 56.5755 13.8795C56.4138 13.2788 56.1482 12.8284 55.7786 12.5281C55.4321 12.2278 54.9931 12.0776 54.4618 12.0776C53.6995 12.0776 53.0873 12.3779 52.6253 12.9785C52.1864 13.556 51.9669 14.584 51.9669 16.0625C51.9669 17.5409 52.1864 18.5805 52.6253 19.1811C53.0642 19.7817 53.6764 20.082 54.4618 20.082Z" fill="url(#paint2_linear_181_5346)"/>
<path d="M76.1172 25.0718C74.1305 25.0718 72.4095 24.7253 70.9541 24.0322C69.5219 23.3161 68.4131 22.2881 67.6276 20.9483C66.8653 19.6084 66.4841 17.9798 66.4841 16.0625C66.4841 14.1451 66.8769 12.5165 67.6623 11.1767C68.4477 9.83682 69.545 8.82039 70.9541 8.12736C72.3633 7.41124 73.9919 7.05318 75.84 7.05318C77.7342 7.05318 79.3397 7.41124 80.6565 8.12736C81.9963 8.82039 83.0127 9.79062 83.7058 11.0381C84.4219 12.2855 84.78 13.7409 84.78 15.4041C84.78 15.7968 84.7569 16.1895 84.7107 16.5822V16.5822C84.6764 17.1645 84.1792 17.5871 83.596 17.5871H72.5134C71.6714 17.5871 70.9888 16.9045 70.9888 16.0625V16.0625C70.9888 15.2204 71.6714 14.5378 72.5134 14.5378H78.7527C79.3309 14.5378 79.4799 15.3385 78.9403 15.5465V15.5465C78.5985 15.6782 78.2312 15.4255 78.2082 15.0599C78.1485 14.1142 77.9712 13.3742 77.6765 12.8399C77.33 12.1469 76.7178 11.8004 75.84 11.8004C75.2393 11.8004 74.7311 11.939 74.3153 12.2162C73.9226 12.4934 73.6223 12.9554 73.4144 13.6022C73.2296 14.2491 73.1372 15.1038 73.1372 16.1664C73.1372 17.2291 73.2527 18.0722 73.4837 18.696C73.7378 19.2966 74.0843 19.7124 74.5232 19.9434C74.9621 20.1744 75.5165 20.2899 76.1865 20.2899C76.9257 20.2899 77.5032 20.1398 77.919 19.8395V19.8395C79.0197 19.0445 80.9057 18.7229 82.151 19.2638L82.2271 19.2969C83.4464 19.8265 84.0522 21.2834 83.257 22.3487C83.0886 22.5743 82.9123 22.7753 82.7355 22.9234C81.9039 23.6395 80.9106 24.1824 79.7555 24.552C78.6005 24.8985 77.3877 25.0718 76.1172 25.0718Z" fill="url(#paint3_linear_181_5346)"/>
<path d="M90.3468 24.7253C88.69 24.7253 87.3468 23.3821 87.3468 21.7253V10.3997C87.3468 8.74284 88.69 7.39969 90.3468 7.39969H91.8927C92.8781 7.39969 93.6895 8.17415 93.7354 9.15848L93.9236 13.1955C93.938 13.5039 93.5619 13.6649 93.3488 13.4416V13.4416C93.2785 13.3679 93.2454 13.2661 93.2606 13.1655C93.4531 11.8951 93.8266 10.8164 94.381 9.92922C94.9586 8.98209 95.6978 8.26597 96.5987 7.78085C97.5227 7.29574 98.5854 7.05318 99.7866 7.05318C100.965 7.05318 101.97 7.28419 102.801 7.7462C103.656 8.18512 104.314 8.85504 104.776 9.75597C105.238 10.6338 105.469 11.7195 105.469 13.0132V21.7253C105.469 23.3821 104.126 24.7253 102.469 24.7253H101.47C99.813 24.7253 98.4699 23.3821 98.4699 21.7253V14.815C98.4699 13.8448 98.3082 13.1864 97.9848 12.8399C97.6844 12.4703 97.2455 12.2855 96.668 12.2855C96.2291 12.2855 95.8248 12.401 95.4552 12.632C95.1087 12.8399 94.8315 13.1864 94.6236 13.6716C94.4388 14.1567 94.3464 14.7919 94.3464 15.5774V21.7253C94.3464 23.3821 93.0032 24.7253 91.3464 24.7253H90.3468Z" fill="url(#paint4_linear_181_5346)"/>
<path d="M117.497 7.05318C119.392 7.05318 121.043 7.41124 122.453 8.12736C123.862 8.82039 124.959 9.83682 125.744 11.1767C126.53 12.5165 126.923 14.1451 126.923 16.0625C126.923 17.9567 126.53 19.5853 125.744 20.9483C124.959 22.2881 123.862 23.3161 122.453 24.0322C121.043 24.7253 119.392 25.0718 117.497 25.0718C115.649 25.0718 114.009 24.7253 112.577 24.0322C111.168 23.3161 110.059 22.2881 109.25 20.9483C108.465 19.5853 108.072 17.9567 108.072 16.0625C108.072 14.1451 108.465 12.5165 109.25 11.1767C110.059 9.83682 111.168 8.82039 112.577 8.12736C114.009 7.41124 115.649 7.05318 117.497 7.05318ZM117.497 11.8697C116.989 11.8697 116.55 11.9967 116.181 12.2509C115.834 12.505 115.569 12.9439 115.384 13.5676C115.199 14.1913 115.106 15.0229 115.106 16.0625C115.106 17.102 115.199 17.9336 115.384 18.5574C115.569 19.158 115.834 19.5969 116.181 19.8741C116.55 20.1282 116.989 20.2553 117.497 20.2553C118.029 20.2553 118.468 20.1282 118.814 19.8741C119.161 19.5969 119.426 19.158 119.611 18.5574C119.796 17.9336 119.888 17.102 119.888 16.0625C119.888 15.0229 119.796 14.1913 119.611 13.5676C119.426 12.9439 119.161 12.505 118.814 12.2509C118.468 11.9967 118.029 11.8697 117.497 11.8697Z" fill="url(#paint5_linear_181_5346)"/>
<path d="M133.477 2.93151C135.683 2.34044 137.851 3.99838 137.858 6.28228L137.897 18.0722C137.897 18.8808 138.07 19.4583 138.416 19.8048C138.786 20.1513 139.329 20.3246 140.045 20.3246C140.477 20.3246 141.114 20.279 141.294 20.2654C141.327 20.2629 141.36 20.2616 141.394 20.2616V20.2616C142.226 20.2616 142.931 20.8734 143.049 21.6971L143.108 22.1135C143.247 23.0844 142.716 24.0344 141.791 24.3621C141.366 24.513 140.931 24.6526 140.599 24.7253C139.652 24.9563 138.728 25.0718 137.827 25.0718C136.349 25.0718 135.09 24.8754 134.05 24.4827C133.034 24.09 132.249 23.4663 131.694 22.6115C131.163 21.7568 130.897 20.6133 130.897 19.1811V6.29357C130.897 4.71818 131.955 3.33921 133.477 2.93151V2.93151ZM140.201 7.39969C141.531 7.39969 142.609 8.4779 142.609 9.80795V9.80795C142.609 11.138 141.531 12.2162 140.201 12.2162H130.464C129.134 12.2162 128.056 11.138 128.056 9.80795V9.80795C128.056 8.4779 129.134 7.39969 130.464 7.39969H140.201Z" fill="url(#paint6_linear_181_5346)"/>
<path d="M153.71 25.0718C151.723 25.0718 150.002 24.7253 148.547 24.0322C147.115 23.3161 146.006 22.2881 145.221 20.9483C144.458 19.6084 144.077 17.9798 144.077 16.0625C144.077 14.1451 144.47 12.5165 145.255 11.1767C146.041 9.83682 147.138 8.82039 148.547 8.12736C149.956 7.41124 151.585 7.05318 153.433 7.05318C155.327 7.05318 156.933 7.41124 158.249 8.12736C159.589 8.82039 160.606 9.79062 161.299 11.0381C162.015 12.2855 162.373 13.7409 162.373 15.4041C162.373 15.7968 162.35 16.1895 162.304 16.5822V16.5822C162.269 17.1645 161.772 17.5871 161.189 17.5871H150.106C149.264 17.5871 148.582 16.9045 148.582 16.0625V16.0625C148.582 15.2204 149.264 14.5378 150.106 14.5378H156.346C156.924 14.5378 157.073 15.3385 156.533 15.5465V15.5465C156.191 15.6782 155.824 15.4255 155.801 15.0599C155.741 14.1142 155.564 13.3742 155.269 12.8399C154.923 12.1469 154.311 11.8004 153.433 11.8004C152.832 11.8004 152.324 11.939 151.908 12.2162C151.515 12.4934 151.215 12.9554 151.007 13.6022C150.822 14.2491 150.73 15.1038 150.73 16.1664C150.73 17.2291 150.846 18.0722 151.077 18.696C151.331 19.2966 151.677 19.7124 152.116 19.9434C152.555 20.1744 153.109 20.2899 153.779 20.2899C154.519 20.2899 155.096 20.1398 155.512 19.8395V19.8395C156.221 19.327 157.073 18.7876 157.912 19.0363L159.243 19.4306C160.795 19.8904 161.744 21.6105 160.562 22.7163C160.487 22.7869 160.409 22.8559 160.328 22.9234C159.497 23.6395 158.503 24.1824 157.348 24.552C156.193 24.8985 154.981 25.0718 153.71 25.0718Z" fill="url(#paint7_linear_181_5346)"/>
<path d="M172.598 25.0718C170.888 25.0718 169.271 24.8177 167.746 24.3095C166.928 24.0366 166.173 23.6938 165.481 23.2812C164.479 22.6839 164.369 21.3462 165.073 20.4165V20.4165C165.9 19.3238 167.526 19.2158 168.747 19.839C168.839 19.8861 168.933 19.9325 169.029 19.9781C170.022 20.4401 171.061 20.6711 172.147 20.6711C172.702 20.6711 173.164 20.6018 173.533 20.4632C173.926 20.3246 174.122 20.082 174.122 19.7355C174.122 19.5045 174.018 19.3197 173.81 19.1811C173.626 19.0194 173.221 18.8808 172.598 18.7653L170.796 18.4188C168.44 17.9567 166.765 17.2868 165.771 16.409C164.801 15.5081 164.316 14.3299 164.316 12.8746C164.316 11.9274 164.605 11.015 165.182 10.1371C165.783 9.2362 166.719 8.49698 167.989 7.91946C169.283 7.34194 170.946 7.05318 172.979 7.05318C174.758 7.05318 176.34 7.29574 177.726 7.78085C178.404 8.00327 179.016 8.27388 179.56 8.59266C180.53 9.16005 180.589 10.447 179.909 11.3412V11.3412C179.079 12.4342 177.452 12.5427 176.174 12.0421C176.115 12.0187 176.054 11.9959 175.993 11.9736C175.046 11.6271 174.145 11.4539 173.291 11.4539C172.852 11.4539 172.482 11.4885 172.182 11.5578C171.882 11.6271 171.651 11.7311 171.489 11.8697C171.35 11.9852 171.281 12.1469 171.281 12.3548C171.281 12.5858 171.408 12.7937 171.662 12.9785C171.939 13.1402 172.436 13.2904 173.152 13.429L175.924 13.9141C177.749 14.2375 179.077 14.8381 179.909 15.716C180.741 16.5938 181.156 17.668 181.156 18.9385C181.156 20.0705 180.856 21.0984 180.256 22.0225C179.655 22.9465 178.719 23.6857 177.449 24.2402C176.201 24.7946 174.584 25.0718 172.598 25.0718Z" fill="url(#paint8_linear_181_5346)"/>
<defs>
<linearGradient id="paint0_linear_181_5346" x1="0.84375" y1="0.261551" x2="184.108" y2="58.5682" gradientUnits="userSpaceOnUse">
<stop stop-color="#99FFE7"/>
<stop offset="1" stop-color="#F5FFCC"/>
</linearGradient>
<linearGradient id="paint1_linear_181_5346" x1="0.84375" y1="0.261551" x2="184.108" y2="58.5682" gradientUnits="userSpaceOnUse">
<stop stop-color="#99FFE7"/>
<stop offset="1" stop-color="#F5FFCC"/>
</linearGradient>
<linearGradient id="paint2_linear_181_5346" x1="0.84375" y1="0.261551" x2="184.108" y2="58.5682" gradientUnits="userSpaceOnUse">
<stop stop-color="#99FFE7"/>
<stop offset="1" stop-color="#F5FFCC"/>
</linearGradient>
<linearGradient id="paint3_linear_181_5346" x1="0.84375" y1="0.261551" x2="184.108" y2="58.5682" gradientUnits="userSpaceOnUse">
<stop stop-color="#99FFE7"/>
<stop offset="1" stop-color="#F5FFCC"/>
</linearGradient>
<linearGradient id="paint4_linear_181_5346" x1="0.84375" y1="0.261551" x2="184.108" y2="58.5682" gradientUnits="userSpaceOnUse">
<stop stop-color="#99FFE7"/>
<stop offset="1" stop-color="#F5FFCC"/>
</linearGradient>
<linearGradient id="paint5_linear_181_5346" x1="0.84375" y1="0.261551" x2="184.108" y2="58.5682" gradientUnits="userSpaceOnUse">
<stop stop-color="#99FFE7"/>
<stop offset="1" stop-color="#F5FFCC"/>
</linearGradient>
<linearGradient id="paint6_linear_181_5346" x1="0.84375" y1="0.261551" x2="184.108" y2="58.5682" gradientUnits="userSpaceOnUse">
<stop stop-color="#99FFE7"/>
<stop offset="1" stop-color="#F5FFCC"/>
</linearGradient>
<linearGradient id="paint7_linear_181_5346" x1="0.84375" y1="0.261551" x2="184.108" y2="58.5682" gradientUnits="userSpaceOnUse">
<stop stop-color="#99FFE7"/>
<stop offset="1" stop-color="#F5FFCC"/>
</linearGradient>
<linearGradient id="paint8_linear_181_5346" x1="0.84375" y1="0.261551" x2="184.108" y2="58.5682" gradientUnits="userSpaceOnUse">
<stop stop-color="#99FFE7"/>
<stop offset="1" stop-color="#F5FFCC"/>
</linearGradient>
</defs>
</svg>
