<svg width="15" height="15" viewBox="0 0 15 15" fill="none" xmlns="http://www.w3.org/2000/svg">
<path d="M7.5 2.5C2.5 2.5 0.625 7.5 0.625 7.5C0.625 7.5 2.5 12.5 7.5 12.5C12.5 12.5 14.375 7.5 14.375 7.5C14.375 7.5 12.5 2.5 7.5 2.5ZM7.5 4.375C9.22563 4.375 10.625 5.77437 10.625 7.5C10.625 9.22563 9.22563 10.625 7.5 10.625C5.77437 10.625 4.375 9.22563 4.375 7.5C4.375 5.77437 5.77437 4.375 7.5 4.375ZM7.5 5.625C7.00272 5.625 6.52581 5.82254 6.17417 6.17417C5.82254 6.52581 5.625 7.00272 5.625 7.5C5.625 7.99728 5.82254 8.47419 6.17417 8.82583C6.52581 9.17746 7.00272 9.375 7.5 9.375C7.99728 9.375 8.47419 9.17746 8.82583 8.82583C9.17746 8.47419 9.375 7.99728 9.375 7.5C9.375 7.00272 9.17746 6.52581 8.82583 6.17417C8.47419 5.82254 7.99728 5.625 7.5 5.625Z" fill="black"/>
</svg>
