<svg width="15" height="15" viewBox="0 0 15 15" fill="none" xmlns="http://www.w3.org/2000/svg">
<path d="M7.5 0C7.125 0 6.875 0.25 6.875 0.625V1.25C6.875 1.625 7.125 1.875 7.5 1.875C7.875 1.875 8.125 1.625 8.125 1.25V0.625C8.125 0.25 7.875 0 7.5 0ZM2.62451 1.99951C2.46826 1.99951 2.3125 2.0625 2.1875 2.1875C1.9375 2.4375 1.9375 2.81274 2.1875 3.06274L2.62451 3.49976C2.87451 3.74976 3.24976 3.74976 3.49976 3.49976C3.74976 3.24976 3.74976 2.87451 3.49976 2.62451L3.06274 2.1875C2.93774 2.0625 2.78076 1.99951 2.62451 1.99951ZM12.3755 1.99951C12.2192 1.99951 12.0623 2.0625 11.9373 2.1875L11.5002 2.62451C11.2502 2.87451 11.2502 3.24976 11.5002 3.49976C11.7502 3.74976 12.1255 3.74976 12.3755 3.49976L12.8125 3.06274C13.0625 2.81274 13.0625 2.4375 12.8125 2.1875C12.6875 2.0625 12.5317 1.99951 12.3755 1.99951ZM7.5 3.125C6.33968 3.125 5.22688 3.58594 4.40641 4.40641C3.58594 5.22688 3.125 6.33968 3.125 7.5C3.125 8.66032 3.58594 9.77312 4.40641 10.5936C5.22688 11.4141 6.33968 11.875 7.5 11.875C8.66032 11.875 9.77312 11.4141 10.5936 10.5936C11.4141 9.77312 11.875 8.66032 11.875 7.5C11.875 6.33968 11.4141 5.22688 10.5936 4.40641C9.77312 3.58594 8.66032 3.125 7.5 3.125V3.125ZM0.625 6.875C0.25 6.875 0 7.125 0 7.5C0 7.875 0.25 8.125 0.625 8.125H1.25C1.625 8.125 1.875 7.875 1.875 7.5C1.875 7.125 1.625 6.875 1.25 6.875H0.625ZM13.75 6.875C13.375 6.875 13.125 7.125 13.125 7.5C13.125 7.875 13.375 8.125 13.75 8.125H14.375C14.75 8.125 15 7.875 15 7.5C15 7.125 14.75 6.875 14.375 6.875H13.75ZM3.06274 11.3123C2.90649 11.3123 2.74951 11.3752 2.62451 11.5002L2.1875 11.9373C1.9375 12.1873 1.9375 12.5625 2.1875 12.8125C2.4375 13.0625 2.81274 13.0625 3.06274 12.8125L3.49976 12.3755C3.74976 12.1255 3.74976 11.7502 3.49976 11.5002C3.37476 11.3752 3.21899 11.3123 3.06274 11.3123ZM11.9373 11.3123C11.781 11.3123 11.6252 11.3752 11.5002 11.5002C11.2502 11.7502 11.2502 12.1255 11.5002 12.3755L11.9373 12.8125C12.1873 13.0625 12.5625 13.0625 12.8125 12.8125C13.0625 12.5625 13.0625 12.1873 12.8125 11.9373L12.3755 11.5002C12.2505 11.3752 12.0935 11.3123 11.9373 11.3123ZM7.5 13.125C7.125 13.125 6.875 13.375 6.875 13.75V14.375C6.875 14.75 7.125 15 7.5 15C7.875 15 8.125 14.75 8.125 14.375V13.75C8.125 13.375 7.875 13.125 7.5 13.125Z" fill="black"/>
</svg>
