<svg width="15" height="15" viewBox="0 0 15 15" fill="none" xmlns="http://www.w3.org/2000/svg">
<path d="M8.13687 13.7487C5.80625 13.7487 3.56625 12.4406 2.49188 10.2031C1.76938 8.69812 1.67625 7.00187 2.23 5.42687C2.78375 3.85187 3.9175 2.58688 5.4225 1.86438C6.27187 1.45625 7.20687 1.22438 8.15 1.25125C8.77125 1.26875 8.97812 1.72875 8.39125 2.07688C6.52875 3.18188 5.70312 6.19125 6.60875 8.0775C7.445 9.81875 9.8075 11.7125 12.5256 10.7175C12.8887 10.5844 13.3256 10.9525 12.9587 11.46C12.4244 12.1987 11.6531 12.7387 10.8319 13.1331C9.96187 13.5506 9.04187 13.7481 8.13687 13.7487Z" fill="black"/>
</svg>
