<svg width="15" height="15" viewBox="0 0 15 15" fill="none" xmlns="http://www.w3.org/2000/svg">
<path d="M7.50854 2.00684C4.73229 2.00684 2.12798 3.65487 0.709227 6.30737C0.661102 6.39862 0.634764 6.49906 0.634764 6.60156V6.66992C0.634764 6.77305 0.660477 6.87408 0.709227 6.96533C1.02183 7.54707 1.39518 8.07678 1.81152 8.55469L0.549314 9.81689C0.489333 9.87449 0.441445 9.94347 0.408456 10.0198C0.375467 10.0961 0.35804 10.1783 0.357195 10.2614C0.35635 10.3446 0.372104 10.4271 0.403534 10.504C0.434965 10.581 0.48144 10.651 0.540239 10.7098C0.599037 10.7686 0.668977 10.815 0.745962 10.8465C0.822946 10.8779 0.905429 10.8936 0.988578 10.8928C1.07173 10.892 1.15387 10.8745 1.2302 10.8415C1.30653 10.8086 1.37551 10.7607 1.4331 10.7007L2.69897 9.43481C3.13859 9.80743 3.61145 10.1292 4.11011 10.3931L3.25073 12.0801C3.21072 12.1534 3.18581 12.2341 3.17749 12.3172C3.16917 12.4003 3.1776 12.4843 3.20229 12.5641C3.22698 12.6439 3.26742 12.718 3.32122 12.7819C3.37502 12.8458 3.44109 12.8983 3.51552 12.9363C3.58996 12.9742 3.67125 12.9969 3.75459 13.0029C3.83792 13.0089 3.92162 12.9981 4.00072 12.9712C4.07982 12.9443 4.15273 12.9018 4.21513 12.8462C4.27753 12.7907 4.32815 12.7232 4.36401 12.6477L5.26367 10.8826C5.78568 11.0552 6.32505 11.169 6.875 11.2183V13.125C6.87383 13.2078 6.88913 13.29 6.92001 13.3669C6.95089 13.4438 6.99675 13.5137 7.0549 13.5727C7.11305 13.6317 7.18235 13.6785 7.25876 13.7105C7.33517 13.7424 7.41717 13.7589 7.5 13.7589C7.58283 13.7589 7.66483 13.7424 7.74124 13.7105C7.81765 13.6785 7.88695 13.6317 7.9451 13.5727C8.00325 13.5137 8.0491 13.4438 8.07999 13.3669C8.11087 13.29 8.12617 13.2078 8.125 13.125V11.2183C8.64227 11.1721 9.15059 11.0698 9.64355 10.9143L10.5273 12.6477C10.6026 12.7955 10.7335 12.9073 10.8912 12.9586C11.049 13.0099 11.2206 12.9964 11.3684 12.9211C11.5162 12.8459 11.628 12.715 11.6793 12.5572C11.7306 12.3995 11.7171 12.2279 11.6418 12.0801L10.8044 10.4358C11.3122 10.1753 11.7967 9.85986 12.2449 9.48731L13.4583 10.7007C13.5158 10.7607 13.5848 10.8086 13.6612 10.8415C13.7375 10.8745 13.8196 10.892 13.9028 10.8928C13.9859 10.8936 14.0684 10.8779 14.1454 10.8465C14.2224 10.815 14.2923 10.7686 14.3511 10.7098C14.4099 10.651 14.4564 10.581 14.4878 10.504C14.5192 10.427 14.535 10.3446 14.5342 10.2614C14.5333 10.1783 14.5159 10.0961 14.4829 10.0198C14.4499 9.94347 14.402 9.87449 14.342 9.81689L13.1396 8.6145C13.5811 8.11723 13.9743 7.56166 14.3018 6.94946C14.3499 6.85821 14.375 6.75655 14.375 6.65405V6.58691C14.375 6.48379 14.3493 6.38153 14.3005 6.29028C12.8805 3.64778 10.2779 2.00684 7.50854 2.00684Z" fill="black"/>
</svg>
