<svg width="214" height="216" viewBox="0 0 214 216" fill="none" xmlns="http://www.w3.org/2000/svg">
    <rect width="214" height="216" fill="#03101A" />
    <path d="M164.615 91.4075C171.318 88.9184 178.806 92.0175 181.79 98.5152L192.807 122.51C194.777 126.803 192.685 131.865 188.259 133.512V133.512C184.273 134.996 179.817 133.155 178.043 129.289L170.344 112.521C169.037 109.675 165.754 108.321 162.82 109.418V109.418C159.888 110.514 156.607 109.161 155.299 106.317L154.463 104.501C152.487 100.204 154.583 95.1331 159.017 93.4864L164.615 91.4075ZM146.08 98.3029L152.859 113.128L155.587 119.043C157.569 123.342 155.468 128.42 151.027 130.061V130.061C147.045 131.533 142.602 129.69 140.83 125.832L137.403 118.367C133.693 110.288 124.383 106.435 116.049 109.529L107.283 112.785V112.785C103.883 114.034 100.095 112.458 98.5836 109.167L98.1244 108.167C96.151 103.869 98.2487 98.8001 102.682 97.1537L124.09 89.2038C132.671 86.0169 142.259 89.984 146.08 98.3029V98.3029Z" fill="url(#paint0_linear_111_317)" />
    <path d="M111.518 206.523C104.998 206.523 99.3978 205.269 94.717 202.762C90.0362 200.254 86.442 196.715 83.9344 192.146C81.4825 187.577 80.2566 182.227 80.2566 176.098C80.2566 171.528 80.9531 167.377 82.3462 163.643C83.7951 159.91 85.8569 156.706 88.5316 154.031C91.2621 151.356 94.5498 149.322 98.3948 147.929C102.295 146.48 106.67 145.756 111.518 145.756C114.081 145.756 116.728 146.062 119.459 146.675C122.245 147.232 124.697 148.096 126.814 149.266C128.374 150.102 129.461 151.161 130.074 152.443C130.687 153.724 130.882 155.034 130.659 156.371C130.492 157.709 130.018 158.907 129.238 159.965C128.458 161.024 127.455 161.749 126.229 162.139C125.003 162.473 123.666 162.278 122.217 161.554C120.545 160.773 118.873 160.188 117.202 159.798C115.586 159.352 113.886 159.13 112.103 159.13C108.648 159.13 105.75 159.798 103.41 161.136C101.125 162.417 99.3978 164.312 98.2276 166.819C97.0574 169.327 96.4723 172.42 96.4723 176.098C96.4723 179.775 97.0574 182.896 98.2276 185.459C99.3978 187.967 101.125 189.889 103.41 191.227C105.75 192.508 108.648 193.149 112.103 193.149C113.552 193.149 115.112 192.982 116.784 192.648C118.455 192.258 120.099 191.672 121.715 190.892C123.387 190.168 124.864 189.973 126.145 190.307C127.483 190.642 128.542 191.31 129.322 192.313C130.158 193.316 130.687 194.486 130.91 195.824C131.133 197.106 130.938 198.387 130.325 199.669C129.767 200.95 128.764 201.981 127.316 202.762C125.365 203.932 122.941 204.851 120.044 205.52C117.202 206.189 114.36 206.523 111.518 206.523ZM146.497 206.356C144.156 206.356 142.373 205.743 141.147 204.517C139.921 203.291 139.308 201.48 139.308 199.084V153.529C139.308 151.077 139.921 149.211 141.147 147.929C142.373 146.592 143.989 145.923 145.995 145.923C147.778 145.923 149.171 146.257 150.174 146.926C151.178 147.595 152.292 148.709 153.518 150.269L180.015 183.37H177.674V153.111C177.674 150.771 178.259 148.988 179.43 147.762C180.656 146.536 182.439 145.923 184.779 145.923C187.12 145.923 188.875 146.536 190.045 147.762C191.271 148.988 191.884 150.771 191.884 153.111V199.418C191.884 201.536 191.327 203.235 190.212 204.517C189.098 205.743 187.593 206.356 185.699 206.356C183.804 206.356 182.299 206.021 181.185 205.353C180.126 204.628 178.984 203.514 177.758 202.009L151.261 168.826H153.602V199.084C153.602 201.48 152.989 203.291 151.763 204.517C150.592 205.743 148.837 206.356 146.497 206.356Z" fill="url(#paint1_linear_111_317)" />
    <path d="M94.717 202.762L95.523 201.257L95.523 201.257L94.717 202.762ZM83.9344 192.146L82.4303 192.953L82.4341 192.96L82.438 192.967L83.9344 192.146ZM82.3462 163.643L80.755 163.026L80.7509 163.036L80.747 163.046L82.3462 163.643ZM88.5316 154.031L87.3372 152.811L87.3309 152.818L87.3247 152.824L88.5316 154.031ZM98.3948 147.929L98.9763 149.534L98.9891 149.529L98.3948 147.929ZM119.459 146.675L119.085 148.341L119.104 148.345L119.124 148.349L119.459 146.675ZM126.814 149.266L125.989 150.76L125.998 150.766L126.008 150.771L126.814 149.266ZM130.074 152.443L128.534 153.179L128.534 153.179L130.074 152.443ZM130.659 156.371L128.975 156.091L128.97 156.125L128.965 156.159L130.659 156.371ZM126.229 162.139L126.678 163.785L126.713 163.776L126.747 163.765L126.229 162.139ZM122.217 161.554L122.98 160.027L122.96 160.017L122.939 160.007L122.217 161.554ZM117.202 159.798L116.748 161.444L116.781 161.453L116.814 161.46L117.202 159.798ZM103.41 161.136L104.245 162.624L104.257 162.618L103.41 161.136ZM98.2276 185.459L96.6749 186.168L96.6778 186.175L96.6809 186.181L98.2276 185.459ZM103.41 191.227L102.548 192.7L102.569 192.712L102.59 192.724L103.41 191.227ZM116.784 192.648L117.119 194.321L117.145 194.316L117.172 194.31L116.784 192.648ZM121.715 190.892L121.037 189.326L121.005 189.34L120.973 189.355L121.715 190.892ZM126.145 190.307L125.715 191.959L125.723 191.961L125.731 191.963L126.145 190.307ZM129.322 192.313L127.974 193.361L127.992 193.384L128.01 193.406L129.322 192.313ZM130.91 195.824L129.226 196.104L129.228 196.116L130.91 195.824ZM130.325 199.669L128.785 198.932L128.772 198.96L128.759 198.988L130.325 199.669ZM127.316 202.762L126.506 201.259L126.471 201.277L126.437 201.298L127.316 202.762ZM120.044 205.52L119.66 203.857L119.653 203.858L120.044 205.52ZM111.518 204.816C105.216 204.816 99.9056 203.605 95.523 201.257L93.911 204.266C98.8901 206.933 104.78 208.23 111.518 208.23V204.816ZM95.523 201.257C91.1278 198.902 87.7761 195.599 85.4308 191.325L82.438 192.967C85.1078 197.832 88.9445 201.606 93.911 204.266L95.523 201.257ZM85.4384 191.339C83.142 187.059 81.9635 181.997 81.9635 176.098H78.5497C78.5497 182.458 79.823 188.094 82.4303 192.953L85.4384 191.339ZM81.9635 176.098C81.9635 171.702 82.6332 167.757 83.9454 164.24L80.747 163.046C79.2731 166.997 78.5497 171.354 78.5497 176.098H81.9635ZM83.9375 164.261C85.3057 160.735 87.2412 157.735 89.7386 155.238L87.3247 152.824C84.4725 155.676 82.2844 159.084 80.755 163.026L83.9375 164.261ZM89.7261 155.25C92.2702 152.758 95.3445 150.85 98.9762 149.534L97.8133 146.324C93.7552 147.795 90.2541 149.954 87.3372 152.811L89.7261 155.25ZM98.9891 149.529C102.671 148.161 106.84 147.463 111.518 147.463V144.049C106.5 144.049 101.92 144.799 97.8005 146.329L98.9891 149.529ZM111.518 147.463C113.944 147.463 116.466 147.753 119.085 148.341L119.832 145.01C116.99 144.372 114.218 144.049 111.518 144.049V147.463ZM119.124 148.349C121.767 148.878 124.048 149.688 125.989 150.76L127.64 147.772C125.345 146.504 122.722 145.587 119.793 145.001L119.124 148.349ZM126.008 150.771C127.328 151.478 128.113 152.298 128.534 153.179L131.614 151.706C130.809 150.024 129.421 148.726 127.62 147.762L126.008 150.771ZM128.534 153.179C129.004 154.161 129.138 155.116 128.975 156.091L132.343 156.652C132.626 154.952 132.37 153.288 131.614 151.706L128.534 153.179ZM128.965 156.159C128.833 157.214 128.466 158.135 127.864 158.953L130.612 160.978C131.57 159.678 132.15 158.203 132.353 156.583L128.965 156.159ZM127.864 158.953C127.292 159.729 126.586 160.234 125.711 160.512L126.747 163.765C128.324 163.263 129.624 162.32 130.612 160.978L127.864 158.953ZM125.78 160.492C125.061 160.688 124.16 160.617 122.98 160.027L121.454 163.08C123.171 163.939 124.945 164.258 126.678 163.785L125.78 160.492ZM122.939 160.007C121.168 159.18 119.384 158.555 117.59 158.136L116.814 161.46C118.362 161.822 119.922 162.366 121.495 163.1L122.939 160.007ZM117.656 158.153C115.883 157.664 114.03 157.423 112.103 157.423V160.836C113.742 160.836 115.289 161.041 116.748 161.444L117.656 158.153ZM112.103 157.423C108.433 157.423 105.224 158.133 102.563 159.654L104.257 162.618C106.276 161.464 108.863 160.836 112.103 160.836V157.423ZM102.575 159.647C99.9604 161.114 97.9931 163.286 96.6809 166.098L99.7744 167.541C100.803 165.338 102.29 163.721 104.245 162.624L102.575 159.647ZM96.6809 166.098C95.3765 168.893 94.7654 172.249 94.7654 176.098H98.1792C98.1792 172.591 98.7384 169.761 99.7744 167.541L96.6809 166.098ZM94.7654 176.098C94.7654 179.948 95.3771 183.325 96.6749 186.168L99.7804 184.75C98.7377 182.466 98.1792 179.602 98.1792 176.098H94.7654ZM96.6809 186.181C97.9906 188.988 99.9498 191.179 102.548 192.7L104.272 189.754C102.301 188.6 100.805 186.946 99.7744 184.737L96.6809 186.181ZM102.59 192.724C105.245 194.178 108.444 194.856 112.103 194.856V191.442C108.852 191.442 106.256 190.839 104.23 189.73L102.59 192.724ZM112.103 194.856C113.682 194.856 115.355 194.674 117.119 194.321L116.449 190.974C114.869 191.29 113.422 191.442 112.103 191.442V194.856ZM117.172 194.31C118.971 193.89 120.733 193.262 122.457 192.429L120.973 189.355C119.465 190.083 117.94 190.625 116.396 190.985L117.172 194.31ZM122.394 192.458C123.846 191.829 124.919 191.751 125.715 191.959L126.576 188.656C124.809 188.194 122.929 188.506 121.037 189.326L122.394 192.458ZM125.731 191.963C126.732 192.213 127.449 192.686 127.974 193.361L130.669 191.265C129.634 189.935 128.234 189.07 126.559 188.651L125.731 191.963ZM128.01 193.406C128.645 194.167 129.051 195.054 129.226 196.104L132.593 195.543C132.323 193.919 131.671 192.466 130.633 191.221L128.01 193.406ZM129.228 196.116C129.385 197.016 129.26 197.94 128.785 198.932L131.865 200.405C132.616 198.835 132.881 197.195 132.591 195.531L129.228 196.116ZM128.759 198.988C128.381 199.859 127.68 200.627 126.506 201.259L128.125 204.264C129.849 203.336 131.154 202.042 131.89 200.349L128.759 198.988ZM126.437 201.298C124.679 202.353 122.434 203.217 119.66 203.857L120.427 207.183C123.449 206.486 126.051 205.511 128.194 204.225L126.437 201.298ZM119.653 203.858C116.935 204.498 114.225 204.816 111.518 204.816V208.23C114.495 208.23 117.468 207.879 120.435 207.181L119.653 203.858ZM141.147 204.517L142.354 203.31L141.147 204.517ZM141.147 147.929L142.381 149.109L142.393 149.096L142.405 149.082L141.147 147.929ZM150.174 146.926L149.228 148.346L149.228 148.346L150.174 146.926ZM153.518 150.269L152.176 151.324L152.181 151.33L152.185 151.336L153.518 150.269ZM180.015 183.37V185.076H183.568L181.347 182.303L180.015 183.37ZM177.674 183.37H175.967V185.076H177.674V183.37ZM179.43 147.762L178.223 146.555L178.209 146.569L178.195 146.583L179.43 147.762ZM190.045 147.762L188.81 148.94L188.824 148.955L188.838 148.969L190.045 147.762ZM190.212 204.517L191.475 205.665L191.488 205.651L191.5 205.637L190.212 204.517ZM181.185 205.353L180.221 206.761L180.263 206.79L180.307 206.816L181.185 205.353ZM177.758 202.009L176.424 203.074L176.429 203.081L176.435 203.087L177.758 202.009ZM151.261 168.826V167.119H147.714L149.927 169.891L151.261 168.826ZM153.602 168.826H155.308V167.119H153.602V168.826ZM151.763 204.517L150.556 203.31L150.542 203.324L150.528 203.338L151.763 204.517ZM146.497 204.649C144.446 204.649 143.161 204.116 142.354 203.31L139.94 205.724C141.586 207.369 143.867 208.063 146.497 208.063V204.649ZM142.354 203.31C141.555 202.51 141.015 201.204 141.015 199.084H137.601C137.601 201.756 138.288 204.072 139.94 205.724L142.354 203.31ZM141.015 199.084V153.529H137.601V199.084H141.015ZM141.015 153.529C141.015 151.347 141.559 149.968 142.381 149.109L139.914 146.749C138.284 148.453 137.601 150.808 137.601 153.529H141.015ZM142.405 149.082C143.272 148.137 144.411 147.63 145.995 147.63V144.216C143.567 144.216 141.474 145.046 139.889 146.776L142.405 149.082ZM145.995 147.63C147.594 147.63 148.609 147.934 149.228 148.346L151.121 145.506C149.733 144.58 147.963 144.216 145.995 144.216V147.63ZM149.228 148.346C150.015 148.871 150.999 149.826 152.176 151.324L154.86 149.215C153.585 147.592 152.34 146.318 151.121 145.506L149.228 148.346ZM152.185 151.336L178.682 184.436L181.347 182.303L154.85 149.203L152.185 151.336ZM180.015 181.663H177.674V185.076H180.015V181.663ZM179.381 183.37V153.111H175.967V183.37H179.381ZM179.381 153.111C179.381 151.04 179.897 149.744 180.664 148.94L178.195 146.583C176.622 148.231 175.967 150.501 175.967 153.111H179.381ZM180.637 148.969C181.443 148.162 182.729 147.63 184.779 147.63V144.216C182.149 144.216 179.868 144.91 178.223 146.555L180.637 148.969ZM184.779 147.63C186.836 147.63 188.07 148.164 188.81 148.94L191.28 146.583C189.68 144.907 187.403 144.216 184.779 144.216V147.63ZM188.838 148.969C189.645 149.775 190.177 151.061 190.177 153.111H193.591C193.591 150.481 192.897 148.2 191.252 146.555L188.838 148.969ZM190.177 153.111V199.418H193.591V153.111H190.177ZM190.177 199.418C190.177 201.229 189.707 202.497 188.924 203.397L191.5 205.637C192.947 203.973 193.591 201.842 193.591 199.418H190.177ZM188.949 203.369C188.206 204.186 187.188 204.649 185.699 204.649V208.063C187.998 208.063 189.989 207.299 191.475 205.665L188.949 203.369ZM185.699 204.649C183.98 204.649 182.818 204.342 182.063 203.889L180.307 206.816C181.781 207.701 183.628 208.063 185.699 208.063V204.649ZM182.149 203.944C181.275 203.346 180.251 202.367 179.081 200.931L176.435 203.087C177.717 204.661 178.977 205.91 180.221 206.761L182.149 203.944ZM179.092 200.944L152.595 167.76L149.927 169.891L176.424 203.074L179.092 200.944ZM151.261 170.532H153.602V167.119H151.261V170.532ZM151.895 168.826V199.084H155.308V168.826H151.895ZM151.895 199.084C151.895 201.204 151.355 202.51 150.556 203.31L152.97 205.724C154.622 204.072 155.308 201.756 155.308 199.084H151.895ZM150.528 203.338C149.787 204.114 148.553 204.649 146.497 204.649V208.063C149.121 208.063 151.398 207.371 152.997 205.695L150.528 203.338Z" fill="url(#paint2_linear_111_317)" />
    <defs>
        <linearGradient id="paint0_linear_111_317" x1="151.908" y1="106.966" x2="117.77" y2="170.121" gradientUnits="userSpaceOnUse">
            <stop stop-color="#D5FF2B" />
            <stop offset="1" stop-color="#1EFFC9" />
        </linearGradient>
        <linearGradient id="paint1_linear_111_317" x1="126.305" y1="192.31" x2="160.443" y2="101.845" gradientUnits="userSpaceOnUse">
            <stop stop-color="#1EFFC8" />
            <stop offset="1" stop-color="#D5FF2A" />
        </linearGradient>
        <linearGradient id="paint2_linear_111_317" x1="184.339" y1="105.259" x2="124.598" y2="194.017" gradientUnits="userSpaceOnUse">
            <stop stop-color="#D5FF2B" />
            <stop offset="1" stop-color="#1EFFC9" />
        </linearGradient>
    </defs>
</svg>
    