<svg width="63" height="64" viewBox="0 0 63 64" fill="none" xmlns="http://www.w3.org/2000/svg">
<path d="M40.1667 10.0099C42.2062 9.25246 44.4847 10.1954 45.3925 12.1726L48.7448 19.4739C49.3444 20.7799 48.7077 22.3202 47.3609 22.8216V22.8216C46.1481 23.2732 44.7923 22.7127 44.2523 21.5366L41.9097 16.4344C41.512 15.5683 40.5131 15.1562 39.6204 15.49V15.49C38.7282 15.8236 37.7298 15.4121 37.3317 14.5467L37.0775 13.994C36.4761 12.6864 37.114 11.1435 38.4633 10.6424L40.1667 10.0099ZM34.5266 12.108L36.5895 16.6188L37.4194 18.4187C38.0226 19.727 37.3833 21.2719 36.032 21.7714V21.7714C34.8204 22.2193 33.4683 21.6585 32.9294 20.4846L31.8864 18.2131C30.7577 15.7548 27.9247 14.5823 25.3889 15.524L22.7214 16.5146V16.5146C21.6869 16.8947 20.5342 16.4152 20.0744 15.4137L19.9347 15.1094C19.3342 13.8016 19.9725 12.2593 21.3215 11.7583L27.8354 9.33931C30.4467 8.36959 33.364 9.57671 34.5266 12.108V12.108Z" fill="url(#paint0_linear_268_2697)"/>
<path d="M7.5647 38.1638C7.5647 36.1182 7.98759 34.2988 8.83337 32.7056C9.69881 31.0927 10.9183 29.8437 12.4918 28.9586C14.0654 28.0538 15.875 27.6014 17.9206 27.6014C20.5169 27.6014 22.7002 28.2997 24.4704 29.6962C25.1725 30.2422 25.7756 30.8672 26.2797 31.5711C27.5143 33.295 25.8925 35.3314 23.772 35.3314V35.3314C22.4867 35.3314 21.3992 34.4688 20.3638 33.7071C20.2798 33.6453 20.1931 33.5868 20.1039 33.5317C19.4548 33.1186 18.6975 32.9121 17.8321 32.9121C16.4945 32.9121 15.4226 33.394 14.6161 34.3578C13.8294 35.3019 13.436 36.5706 13.436 38.1638C13.436 39.7767 13.8294 41.065 14.6161 42.0288C15.4226 42.9729 16.4945 43.445 17.8321 43.445C18.6975 43.445 19.4548 43.2385 20.1039 42.8254C20.1931 42.7703 20.2798 42.7118 20.3638 42.65C21.3992 41.8883 22.4867 41.0257 23.772 41.0257V41.0257C25.8925 41.0257 27.5125 43.0599 26.2852 44.7891C25.78 45.5008 25.1751 46.1345 24.4704 46.6904C22.7002 48.0673 20.5169 48.7557 17.9206 48.7557C15.875 48.7557 14.0654 48.3131 12.4918 47.428C10.9183 46.5232 9.69881 45.2742 8.83337 43.681C7.98759 42.0682 7.5647 40.2291 7.5647 38.1638Z" fill="url(#paint1_linear_268_2697)"/>
<path d="M49.8973 44.383C49.8973 46.4619 48.212 48.1472 46.1331 48.1472V48.1472C44.8723 48.1472 43.6952 47.5159 42.9976 46.4656L38.549 39.7679C38.2112 39.2594 37.5996 39.0054 37.0009 39.1251V39.1251C36.2514 39.275 35.7334 39.9632 35.7968 40.7249L36.1644 45.1461C36.2988 46.7617 35.0238 48.1472 33.4026 48.1472V48.1472C31.872 48.1472 30.6312 46.9064 30.6312 45.3758V30.9859C30.6312 28.9761 32.2604 27.3469 34.2702 27.3469V27.3469C35.5931 27.3469 36.8118 28.0649 37.4531 29.2221L42.2911 37.9528C42.5987 38.5079 43.274 38.7439 43.8604 38.5011V38.5011C44.3487 38.2989 44.6568 37.8111 44.6294 37.2832L44.268 30.3092C44.1845 28.6986 45.468 27.3469 47.0808 27.3469V27.3469C48.6363 27.3469 49.8973 28.6079 49.8973 30.1634V44.383Z" fill="url(#paint2_linear_268_2697)"/>
<defs>
<linearGradient id="paint0_linear_268_2697" x1="24.3884" y1="2.27881" x2="53.8708" y2="17.7504" gradientUnits="userSpaceOnUse">
<stop stop-color="#99FFE7"/>
<stop offset="1" stop-color="#F5FFCC"/>
</linearGradient>
<linearGradient id="paint1_linear_268_2697" x1="7.5647" y1="27.3469" x2="54.593" y2="31.4178" gradientUnits="userSpaceOnUse">
<stop stop-color="#99FFE7"/>
<stop offset="1" stop-color="#F5FFCC"/>
</linearGradient>
<linearGradient id="paint2_linear_268_2697" x1="7.5647" y1="27.3469" x2="54.593" y2="31.4178" gradientUnits="userSpaceOnUse">
<stop stop-color="#99FFE7"/>
<stop offset="1" stop-color="#F5FFCC"/>
</linearGradient>
</defs>
</svg>
